# xmcd CD database file
# Copyright (C) 1993-1996 Ti Kan
#
# Track frame offsets:
#	150
#	11360
#	24857
#	45022
#	63132
#	78755
#	96917
#	113322
#	127945
#	144450
#	157855
#	169127
#	190950
#
# Disc length: 2712 seconds
#
# Revision: 1
# Processed by: cddbd v1.4b41PL1 Copyright (c) Steve Scherf et al.
# Submitted via: CDValet v3.30 - Copyright (c) 1997 Greg Leichner
#
DISCID=830a960d
DTITLE=Kevin Johnson and the Linemen - Parole Music
DYEAR=1900
DGENRE=
TTITLE0=Written on my Heart
TTITLE1=She Changed the Country Station
TTITLE2=Blue Train
TTITLE3=The Killer Pillow
TTITLE4=Miss Lonelyhearts out on the Town
TTITLE5=Stay in Trouble
TTITLE6=The Love Blender
TTITLE7=Disintegrating Heart
TTITLE8=La
TTITLE9=Don't Play the Mean One
TTITLE10=Buckskin Stallion Blues
TTITLE11=Pay for the Privilege
TTITLE12=My Loving Memory
EXTD=
EXTT0=
EXTT1=
EXTT2=
EXTT3=
EXTT4=
EXTT5=
EXTT6=
EXTT7=
EXTT8=
EXTT9=
EXTT10=
EXTT11=
EXTT12=
PLAYORDER=
